# xmcd
#
# Track frame offsets: 
#        150
#        14142
#        27035
#        44350
#        73347
#        88352
#        119477
#        135415
#        147060
#        169375
#        184755
#        209747
#        226197
#        243227
#
# Disc length: 3501 seconds
#
# Revision: 8
# Processed by: cddbd v1.5.2PL0 Copyright (c) Steve Scherf et al.
# Submitted via: ExactAudioCopyFreeDBPlugin 1.0
#
DISCID=d00dab0e
DTITLE=The Blues Brothers - Live In Montreux
DYEAR=1997
DGENRE=Blues
TTITLE0=Hold On, I'm Comin'
TTITLE1=In the Midnight Hour
TTITLE2=She Caught the Katy
TTITLE3=The Thrill is Gone
TTITLE4=Can't Turn You Loose
TTITLE5=Sweet Home Chicago
TTITLE6=Knock on Wood
TTITLE7=Raise Your Hand
TTITLE8=Peter Gunn
TTITLE9=Soulfinger
TTITLE10=Hey, Bartender
TTITLE11=Soul Man
TTITLE12=Everybody Needs Somebody to Love
TTITLE13=Green Onions
EXTD=YEAR: 1997
EXTT0=
EXTT1=
EXTT2=
EXTT3=
EXTT4=
EXTT5=
EXTT6=
EXTT7=
EXTT8=
EXTT9=
EXTT10=
EXTT11=
EXTT12=
EXTT13=
PLAYORDER=
